<svg width="24" height="25" viewBox="0 0 24 25" fill="none" xmlns="http://www.w3.org/2000/svg">
<g clip-path="url(#clip0_12_59)">
<path d="M12.0584 0.0818731C8.90407 0.0601536 5.87028 1.30247 3.62438 3.53552C1.37848 5.76858 0.10445 8.80945 0.0825545 11.9892C0.0606594 15.1689 1.2927 18.2271 3.50763 20.4908C5.72256 22.7546 8.73896 24.0386 11.8932 24.0603L11.9758 12.0711L12.0584 0.0818731Z" fill="#6889FF"/>
<path fill-rule="evenodd" clip-rule="evenodd" d="M23.192 6.55269C23.7254 7.84054 24 9.22085 24 10.6148H13.3852V0C14.7791 0 16.1595 0.27456 17.4473 0.808003C18.7351 1.34145 19.9053 2.12333 20.891 3.109C21.8767 4.09468 22.6585 5.26484 23.192 6.55269ZM16.7023 9.28795C17.8015 9.28795 18.6926 8.39687 18.6926 7.29768C18.6926 6.19848 17.8015 5.3074 16.7023 5.3074C15.6031 5.3074 14.712 6.19848 14.712 7.29768C14.712 8.39687 15.6031 9.28795 16.7023 9.28795Z" fill="#7001FF"/>
</g>
<defs>
<clipPath id="clip0_12_59">
<rect width="24" height="24.0603" fill="white"/>
</clipPath>
</defs>
</svg>
